<?xml version="1.0" encoding="UTF-8"?>
<svg version="1.1" xmlns="http://www.w3.org/2000/svg" viewBox="0 0 225 225" width="225" height="225" preserveAspectRatio="xMidYMid meet">
<!-- background removed to preserve transparency -->
<path d="M0 0 C1.45792969 0.50080078 1.45792969 0.50080078 2.9453125 1.01171875 C3.62335938 1.33785156 4.30140625 1.66398437 5 2 C5.8125 4.625 5.8125 4.625 6 7 C3.03 7 0.06 7 -3 7 C-3 7.99 -3 8.98 -3 10 C-1.02 10 0.96 10 3 10 C3 10.99 3 11.98 3 13 C1.02 13 -0.96 13 -3 13 C-3 13.99 -3 14.98 -3 16 C-0.03 16 2.94 16 6 16 C6 16.66 6 17.32 6 18 C2.04 18 -1.92 18 -6 18 C-6.33 15.03 -6.66 12.06 -7 9 C-7.33 10.32 -7.66 11.64 -8 13 C-8.66 13 -9.32 13 -10 13 C-10.309375 13.639375 -10.61875 14.27875 -10.9375 14.9375 C-12 17 -12 17 -13 18 C-20.25146199 18.58479532 -20.25146199 18.58479532 -23 16.4375 C-24.37498501 13.08597404 -24.38467994 10.59034613 -24 7 C-22.5 4.5625 -22.5 4.5625 -21 3 C-29.62129076 -7.05817255 -50.28660207 -8.50286432 -62.76171875 -9.75244141 C-82.12072192 -11.23238933 -101.08035308 -10.56018572 -120 -6 C-121.19496094 -5.72671875 -122.38992187 -5.4534375 -123.62109375 -5.171875 C-126.43138043 -4.49883819 -129.21488075 -3.76973578 -132 -3 C-133.04285156 -2.71898438 -134.08570313 -2.43796875 -135.16015625 -2.1484375 C-137.77588151 -1.44076973 -140.38895795 -0.72471836 -143 0 C-143 0.66 -143 1.32 -143 2 C-141.33720673 3.0064275 -139.67016516 4.00585407 -138 5 C-135.27713194 9.08430208 -135.61475466 11.14590877 -136 16 C-139.46670236 18.3111349 -140.85654877 18.24298883 -144.9375 18.1875 C-145.97777344 18.18105469 -147.01804687 18.17460938 -148.08984375 18.16796875 C-150.56536578 18.02508627 -152.61723717 17.60260127 -155 17 C-155.33 17.33 -155.66 17.66 -156 18 C-158.21484375 18.203125 -158.21484375 18.203125 -160.9375 18.25 C-162.28134766 18.28867188 -162.28134766 18.28867188 -163.65234375 18.328125 C-164.42707031 18.21984375 -165.20179688 18.1115625 -166 18 C-166.66 17.01 -167.32 16.02 -168 15 C-164.04 15 -160.08 15 -156 15 C-156.33 14.01 -156.66 13.02 -157 12 C-157.62648438 11.95101562 -158.25296875 11.90203125 -158.8984375 11.8515625 C-159.71570313 11.77679688 -160.53296875 11.70203125 -161.375 11.625 C-162.18710938 11.55539063 -162.99921875 11.48578125 -163.8359375 11.4140625 C-166 11 -166 11 -168 9 C-168.25 6.5 -168.25 6.5 -168 4 C-166 2 -166 2 -162.125 1.8125 C-159.28539226 1.879618 -156.71483095 2.09505635 -154 3 C-154 3.66 -154 4.32 -154 5 C-153.34 5 -152.68 5 -152 5 C-152 4.01 -152 3.02 -152 2 C-104.23073201 -21.13182318 -48.94884579 -17.85193199 0 0 Z " fill="#83A54F" transform="translate(194,102)"/>
<path d="M0 0 C2.72286806 4.08430208 2.38524534 6.14590877 2 11 C-1.46670236 13.3111349 -2.85654877 13.24298883 -6.9375 13.1875 C-7.97777344 13.18105469 -9.01804687 13.17460938 -10.08984375 13.16796875 C-12.56536578 13.02508627 -14.61723717 12.60260127 -17 12 C-17.33 12.33 -17.66 12.66 -18 13 C-20.21484375 13.203125 -20.21484375 13.203125 -22.9375 13.25 C-23.83339844 13.27578125 -24.72929687 13.3015625 -25.65234375 13.328125 C-26.81443359 13.16570312 -26.81443359 13.16570312 -28 13 C-28.66 12.01 -29.32 11.02 -30 10 C-26.04 10 -22.08 10 -18 10 C-18.33 9.01 -18.66 8.02 -19 7 C-19.62648438 6.95101562 -20.25296875 6.90203125 -20.8984375 6.8515625 C-22.12433594 6.73941406 -22.12433594 6.73941406 -23.375 6.625 C-24.18710937 6.55539063 -24.99921875 6.48578125 -25.8359375 6.4140625 C-28 6 -28 6 -30 4 C-30.25 1.5 -30.25 1.5 -30 -1 C-28 -3 -28 -3 -24.125 -3.1875 C-21.28539226 -3.120382 -18.71483095 -2.90494365 -16 -2 C-16 -1.34 -16 -0.68 -16 0 C-15.34 0 -14.68 0 -14 0 C-13.67 -0.99 -13.34 -1.98 -13 -3 C-7.50720873 -4.33608436 -4.64935782 -3.09957188 0 0 Z " fill="#080807" transform="translate(56,107)"/>
... (file truncated for brevity) ...
</svg>
